<svg xmlns="http://www.w3.org/2000/svg" xmlns:xlink="http://www.w3.org/1999/xlink" width="85" zoomAndPan="magnify" viewBox="0 0 63.75 63.749998" height="85" preserveAspectRatio="xMidYMid meet" version="1.0"><defs><g/><clipPath id="96cb1d53cb"><path d="M 19.125 21.738281 L 44.625 21.738281 L 44.625 47.238281 L 19.125 47.238281 Z M 19.125 21.738281 " clip-rule="nonzero"/></clipPath><clipPath id="7b500c9896"><path d="M 32.746094 45.328125 C 31.964844 44.875 31.21875 44.378906 30.507812 43.847656 C 37.667969 40.09375 42.53125 33.871094 43.996094 26.847656 C 43.636719 34.496094 39.417969 41.472656 32.746094 45.328125 Z M 20.054688 28.300781 C 20.800781 27.789062 21.566406 27.328125 22.355469 26.914062 C 22.664062 34.996094 26.1875 42.066406 31.894531 46.40625 C 25.144531 42.792969 20.660156 35.980469 20.054688 28.300781 Z M 42.105469 25.21875 C 42.136719 26.121094 42.109375 27.015625 42.03125 27.902344 C 35.0625 23.808594 27.207031 22.964844 20.472656 25.433594 C 27.15625 21.695312 35.308594 21.589844 42.105469 25.21875 Z M 44.621094 25.152344 C 36.730469 20.597656 27.011719 20.597656 19.121094 25.152344 C 19.121094 34.261719 23.984375 42.679688 31.871094 47.234375 C 39.761719 42.679688 44.621094 34.261719 44.621094 25.152344 Z M 44.621094 25.152344 " clip-rule="nonzero"/></clipPath><clipPath id="1e3d5e3cf3"><path d="M 32.746094 45.328125 C 31.964844 44.875 31.21875 44.378906 30.507812 43.847656 C 37.667969 40.09375 42.53125 33.871094 43.996094 26.847656 C 43.636719 34.496094 39.417969 41.472656 32.746094 45.328125 Z M 20.054688 28.300781 C 20.800781 27.789062 21.566406 27.328125 22.355469 26.914062 C 22.664062 34.996094 26.1875 42.066406 31.894531 46.40625 C 25.144531 42.792969 20.660156 35.980469 20.054688 28.300781 Z M 42.105469 25.21875 C 42.136719 26.121094 42.109375 27.015625 42.03125 27.902344 C 35.0625 23.808594 27.207031 22.964844 20.472656 25.433594 C 27.15625 21.695312 35.308594 21.589844 42.105469 25.21875 Z M 44.621094 25.152344 C 36.730469 20.597656 27.011719 20.597656 19.121094 25.152344 C 19.121094 34.261719 23.984375 42.679688 31.871094 47.234375 C 39.761719 42.679688 44.621094 34.261719 44.621094 25.152344 " clip-rule="nonzero"/></clipPath><clipPath id="fa4343ae2d"><path d="M 56.316406 27.546875 L 25.773438 9.402344 L 7.425781 40.285156 L 37.96875 58.429688 Z M 56.316406 27.546875 " clip-rule="nonzero"/></clipPath><radialGradient gradientTransform="matrix(-0.510738, 0.859736, -0.859736, -0.510738, 44.358154, 25.396483)" gradientUnits="userSpaceOnUse" r="27.170318" cx="0" id="0306bc69b3" cy="0" fx="0" fy="0"><stop stop-opacity="1" stop-color="rgb(0%, 67.799377%, 93.504333%)" offset="0"/><stop stop-opacity="1" stop-color="rgb(0%, 67.799377%, 93.113708%)" offset="0.00390625"/><stop stop-opacity="1" stop-color="rgb(0%, 67.799377%, 92.907715%)" offset="0.0078125"/><stop stop-opacity="1" stop-color="rgb(0%, 67.799377%, 92.71698%)" offset="0.0117188"/><stop stop-opacity="1" stop-color="rgb(0%, 67.799377%, 92.51709%)" offset="0.015625"/><stop stop-opacity="1" stop-color="rgb(0.19989%, 67.799377%, 92.349243%)" offset="0.0195312"/><stop stop-opacity="1" stop-color="rgb(0.39978%, 67.799377%, 92.181396%)" offset="0.0234375"/><stop stop-opacity="1" stop-color="rgb(0.39978%, 67.799377%, 91.969299%)" offset="0.0273438"/><stop stop-opacity="1" stop-color="rgb(0.39978%, 67.799377%, 91.586304%)" offset="0.03125"/><stop stop-opacity="1" stop-color="rgb(0.39978%, 67.799377%, 91.395569%)" offset="0.0351562"/><stop stop-opacity="1" stop-color="rgb(0.39978%, 67.799377%, 91.197205%)" offset="0.0390625"/><stop stop-opacity="1" stop-color="rgb(0.39978%, 67.799377%, 91.000366%)" offset="0.0429688"/><stop stop-opacity="1" stop-color="rgb(0.39978%, 67.657471%, 90.809631%)" offset="0.046875"/><stop stop-opacity="1" stop-color="rgb(0.39978%, 67.506409%, 90.609741%)" offset="0.0507812"/><stop stop-opacity="1" stop-color="rgb(0.39978%, 67.498779%, 90.419006%)" offset="0.0546875"/><stop stop-opacity="1" stop-color="rgb(0.39978%, 67.498779%, 90.219116%)" offset="0.0585938"/><stop stop-opacity="1" stop-color="rgb(0.39978%, 67.498779%, 89.99939%)" offset="0.0625"/><stop stop-opacity="1" stop-color="rgb(0.39978%, 67.498779%, 89.782715%)" offset="0.0664062"/><stop stop-opacity="1" stop-color="rgb(0.39978%, 67.498779%, 89.572144%)" offset="0.0703125"/><stop stop-opacity="1" stop-color="rgb(0.405884%, 67.498779%, 89.187622%)" offset="0.0742188"/><stop stop-opacity="1" stop-color="rgb(0.605774%, 67.498779%, 88.996887%)" offset="0.078125"/><stop stop-opacity="1" stop-color="rgb(0.799561%, 67.498779%, 88.800049%)" offset="0.0820312"/><stop stop-opacity="1" stop-color="rgb(0.799561%, 67.498779%, 88.601685%)" offset="0.0859375"/><stop stop-opacity="1" stop-color="rgb(0.799561%, 67.498779%, 88.41095%)" offset="0.0898438"/><stop stop-opacity="1" stop-color="rgb(0.799561%, 67.498779%, 88.21106%)" offset="0.09375"/><stop stop-opacity="1" stop-color="rgb(0.799561%, 67.498779%, 88.020325%)" offset="0.0976562"/><stop stop-opacity="1" stop-color="rgb(0.799561%, 67.498779%, 87.670898%)" offset="0.101562"/><stop stop-opacity="1" stop-color="rgb(0.799561%, 67.498779%, 87.480164%)" offset="0.105469"/><stop stop-opacity="1" stop-color="rgb(0.799561%, 67.498779%, 87.280273%)" offset="0.109375"/><stop stop-opacity="1" stop-color="rgb(0.799561%, 67.498779%, 87.089539%)" offset="0.113281"/><stop stop-opacity="1" stop-color="rgb(0.799561%, 67.498779%, 86.885071%)" offset="0.117188"/><stop stop-opacity="1" stop-color="rgb(0.799561%, 67.498779%, 86.494446%)" offset="0.121094"/><stop stop-opacity="1" stop-color="rgb(0.994873%, 67.498779%, 86.299133%)" offset="0.125"/><stop stop-opacity="1" stop-color="rgb(1.194763%, 67.498779%, 86.108398%)" offset="0.128906"/><stop stop-opacity="1" stop-color="rgb(1.199341%, 67.498779%, 85.908508%)" offset="0.132812"/><stop stop-opacity="1" stop-color="rgb(1.199341%, 67.498779%, 85.717773%)" offset="0.136719"/><stop stop-opacity="1" stop-color="rgb(1.374817%, 67.498779%, 85.517883%)" offset="0.140625"/><stop stop-opacity="1" stop-color="rgb(1.574707%, 67.498779%, 85.276794%)" offset="0.144531"/><stop stop-opacity="1" stop-color="rgb(1.599121%, 67.498779%, 84.877014%)" offset="0.148438"/><stop stop-opacity="1" stop-color="rgb(1.599121%, 67.486572%, 84.686279%)" offset="0.152344"/><stop stop-opacity="1" stop-color="rgb(1.599121%, 67.286682%, 84.486389%)" offset="0.15625"/><stop stop-opacity="1" stop-color="rgb(1.599121%, 67.098999%, 84.295654%)" offset="0.160156"/><stop stop-opacity="1" stop-color="rgb(1.599121%, 67.098999%, 84.09729%)" offset="0.164062"/><stop stop-opacity="1" stop-color="rgb(1.599121%, 67.098999%, 83.900452%)" offset="0.167969"/><stop stop-opacity="1" stop-color="rgb(1.599121%, 67.098999%, 83.709717%)" offset="0.171875"/><stop stop-opacity="1" stop-color="rgb(1.599121%, 67.098999%, 83.325195%)" offset="0.175781"/><stop stop-opacity="1" stop-color="rgb(1.599121%, 67.098999%, 83.114624%)" offset="0.179688"/><stop stop-opacity="1" stop-color="rgb(1.599121%, 67.098999%, 82.923889%)" offset="0.183594"/><stop stop-opacity="1" stop-color="rgb(1.609802%, 67.098999%, 82.563782%)" offset="0.1875"/><stop stop-opacity="1" stop-color="rgb(1.809692%, 67.098999%, 82.188416%)" offset="0.199219"/><stop stop-opacity="1" stop-color="rgb(1.998901%, 67.098999%, 81.997681%)" offset="0.203125"/><stop stop-opacity="1" stop-color="rgb(1.998901%, 67.098999%, 81.800842%)" offset="0.207031"/><stop stop-opacity="1" stop-color="rgb(1.998901%, 67.098999%, 81.410217%)" offset="0.210938"/><stop stop-opacity="1" stop-color="rgb(1.998901%, 67.098999%, 81.207275%)" offset="0.214844"/><stop stop-opacity="1" stop-color="rgb(1.998901%, 67.098999%, 81.016541%)" offset="0.21875"/><stop stop-opacity="1" stop-color="rgb(1.998901%, 67.098999%, 80.81665%)" offset="0.222656"/><stop stop-opacity="1" stop-color="rgb(1.998901%, 67.098999%, 80.575562%)" offset="0.226562"/><stop stop-opacity="1" stop-color="rgb(1.998901%, 67.098999%, 80.175781%)" offset="0.230469"/><stop stop-opacity="1" stop-color="rgb(1.998901%, 67.098999%, 79.985046%)" offset="0.234375"/><stop stop-opacity="1" stop-color="rgb(1.998901%, 67.098999%, 79.785156%)" offset="0.238281"/><stop stop-opacity="1" stop-color="rgb(2.003479%, 67.098999%, 79.594421%)" offset="0.242188"/><stop stop-opacity="1" stop-color="rgb(2.203369%, 67.098999%, 79.394531%)" offset="0.246094"/><stop stop-opacity="1" stop-color="rgb(2.398682%, 67.098999%, 79.199219%)" offset="0.25"/><stop stop-opacity="1" stop-color="rgb(2.398682%, 67.098999%, 79.008484%)" offset="0.253906"/><stop stop-opacity="1" stop-color="rgb(2.398682%, 67.098999%, 78.622437%)" offset="0.257812"/><stop stop-opacity="1" stop-color="rgb(2.398682%, 66.917419%, 78.413391%)" offset="0.261719"/><stop stop-opacity="1" stop-color="rgb(2.398682%, 66.717529%, 78.222656%)" offset="0.265625"/><stop stop-opacity="1" stop-color="rgb(2.398682%, 66.699219%, 77.999878%)" offset="0.269531"/><stop stop-opacity="1" stop-color="rgb(2.398682%, 66.699219%, 77.767944%)" offset="0.273438"/><stop stop-opacity="1" stop-color="rgb(2.398682%, 66.699219%, 77.436829%)" offset="0.28125"/><stop stop-opacity="1" stop-color="rgb(2.398682%, 66.699219%, 77.098083%)" offset="0.289062"/><stop stop-opacity="1" stop-color="rgb(2.398682%, 66.699219%, 76.707458%)" offset="0.292969"/><stop stop-opacity="1" stop-color="rgb(2.398682%, 66.699219%, 76.321411%)" offset="0.296875"/><stop stop-opacity="1" stop-color="rgb(2.548218%, 66.699219%, 75.939941%)" offset="0.304688"/><stop stop-opacity="1" stop-color="rgb(2.69928%, 66.699219%, 75.70343%)" offset="0.3125"/><stop stop-opacity="1" stop-color="rgb(2.69928%, 66.699219%, 75.463867%)" offset="0.316406"/><stop stop-opacity="1" stop-color="rgb(2.69928%, 66.699219%, 75.07782%)" offset="0.320312"/><stop stop-opacity="1" stop-color="rgb(2.69928%, 66.699219%, 74.691772%)" offset="0.328125"/><stop stop-opacity="1" stop-color="rgb(2.69928%, 66.699219%, 74.301147%)" offset="0.332031"/><stop stop-opacity="1" stop-color="rgb(2.69928%, 66.511536%, 73.9151%)" offset="0.335938"/><stop stop-opacity="1" stop-color="rgb(2.69928%, 66.311646%, 73.529053%)" offset="0.34375"/><stop stop-opacity="1" stop-color="rgb(2.876282%, 66.299438%, 73.31543%)" offset="0.347656"/><stop stop-opacity="1" stop-color="rgb(3.076172%, 66.299438%, 73.098755%)" offset="0.351562"/><stop stop-opacity="1" stop-color="rgb(3.09906%, 66.317749%, 72.880554%)" offset="0.355469"/><stop stop-opacity="1" stop-color="rgb(3.09906%, 66.508484%, 72.673035%)" offset="0.359375"/><stop stop-opacity="1" stop-color="rgb(3.09906%, 66.490173%, 72.341919%)" offset="0.367188"/><stop stop-opacity="1" stop-color="rgb(3.09906%, 66.299438%, 72.003174%)" offset="0.375"/><stop stop-opacity="1" stop-color="rgb(3.09906%, 66.299438%, 71.617126%)" offset="0.378906"/><stop stop-opacity="1" stop-color="rgb(3.09906%, 66.299438%, 71.237183%)" offset="0.386719"/><stop stop-opacity="1" stop-color="rgb(3.09906%, 66.299438%, 71.000671%)" offset="0.394531"/><stop stop-opacity="1" stop-color="rgb(3.09906%, 66.299438%, 70.759583%)" offset="0.398438"/><stop stop-opacity="1" stop-color="rgb(3.111267%, 66.299438%, 70.381165%)" offset="0.402344"/><stop stop-opacity="1" stop-color="rgb(3.311157%, 66.299438%, 70.191956%)" offset="0.40625"/><stop stop-opacity="1" stop-color="rgb(3.49884%, 66.299438%, 69.989014%)" offset="0.410156"/><stop stop-opacity="1" stop-color="rgb(3.49884%, 66.299438%, 69.598389%)" offset="0.414062"/><stop stop-opacity="1" stop-color="rgb(3.49884%, 66.299438%, 69.400024%)" offset="0.417969"/><stop stop-opacity="1" stop-color="rgb(3.49884%, 66.299438%, 69.213867%)" offset="0.425781"/><stop stop-opacity="1" stop-color="rgb(3.49884%, 66.299438%, 68.835449%)" offset="0.429688"/><stop stop-opacity="1" stop-color="rgb(3.49884%, 66.299438%, 68.618774%)" offset="0.433594"/><stop stop-opacity="1" stop-color="rgb(3.518677%, 66.299438%, 68.377686%)" offset="0.4375"/><stop stop-opacity="1" stop-color="rgb(3.718567%, 66.288757%, 67.970276%)" offset="0.441406"/><stop stop-opacity="1" stop-color="rgb(3.898621%, 66.088867%, 67.634583%)" offset="0.449219"/><stop stop-opacity="1" stop-color="rgb(3.898621%, 65.899658%, 67.292786%)" offset="0.453125"/><stop stop-opacity="1" stop-color="rgb(3.898621%, 65.899658%, 66.906738%)" offset="0.460938"/><stop stop-opacity="1" stop-color="rgb(4.081726%, 65.899658%, 66.523743%)" offset="0.464844"/><stop stop-opacity="1" stop-color="rgb(4.281616%, 66.07666%, 66.316223%)" offset="0.472656"/><stop stop-opacity="1" stop-color="rgb(4.299927%, 66.07666%, 66.099548%)" offset="0.476562"/><stop stop-opacity="1" stop-color="rgb(4.299927%, 65.899658%, 65.879822%)" offset="0.480469"/><stop stop-opacity="1" stop-color="rgb(4.299927%, 65.899658%, 65.666199%)" offset="0.484375"/><stop stop-opacity="1" stop-color="rgb(4.299927%, 65.899658%, 65.280151%)" offset="0.488281"/><stop stop-opacity="1" stop-color="rgb(4.299927%, 65.899658%, 64.894104%)" offset="0.496094"/><stop stop-opacity="1" stop-color="rgb(4.299927%, 65.899658%, 64.508057%)" offset="0.503906"/><stop stop-opacity="1" stop-color="rgb(4.299927%, 65.899658%, 64.308167%)" offset="0.507812"/><stop stop-opacity="1" stop-color="rgb(4.299927%, 65.899658%, 64.117432%)" offset="0.511719"/><stop stop-opacity="1" stop-color="rgb(4.299927%, 65.899658%, 63.742065%)" offset="0.515625"/><stop stop-opacity="1" stop-color="rgb(4.299927%, 65.899658%, 63.500977%)" offset="0.519531"/><stop stop-opacity="1" stop-color="rgb(4.299927%, 65.899658%, 63.276672%)" offset="0.523438"/><stop stop-opacity="1" stop-color="rgb(4.312134%, 65.899658%, 63.085938%)" offset="0.527344"/><stop stop-opacity="1" stop-color="rgb(4.512024%, 65.899658%, 62.886047%)" offset="0.53125"/><stop stop-opacity="1" stop-color="rgb(4.699707%, 65.899658%, 62.548828%)" offset="0.535156"/><stop stop-opacity="1" stop-color="rgb(4.699707%, 65.899658%, 62.210083%)" offset="0.546875"/><stop stop-opacity="1" stop-color="rgb(4.699707%, 65.899658%, 61.825562%)" offset="0.550781"/><stop stop-opacity="1" stop-color="rgb(4.699707%, 65.899658%, 61.61499%)" offset="0.554688"/><stop stop-opacity="1" stop-color="rgb(4.699707%, 65.899658%, 61.424255%)" offset="0.558594"/><stop stop-opacity="1" stop-color="rgb(4.699707%, 65.699768%, 61.022949%)" offset="0.5625"/><stop stop-opacity="1" stop-color="rgb(4.699707%, 65.499878%, 60.783386%)" offset="0.566406"/><stop stop-opacity="1" stop-color="rgb(4.710388%, 65.499878%, 60.583496%)" offset="0.570312"/><stop stop-opacity="1" stop-color="rgb(4.910278%, 65.499878%, 60.392761%)" offset="0.574219"/><stop stop-opacity="1" stop-color="rgb(5.099487%, 65.499878%, 60.192871%)" offset="0.578125"/><stop stop-opacity="1" stop-color="rgb(5.099487%, 65.499878%, 59.999084%)" offset="0.582031"/><stop stop-opacity="1" stop-color="rgb(5.099487%, 65.499878%, 59.806824%)" offset="0.585938"/><stop stop-opacity="1" stop-color="rgb(5.099487%, 65.499878%, 59.41925%)" offset="0.589844"/><stop stop-opacity="1" stop-color="rgb(5.099487%, 65.499878%, 59.211731%)" offset="0.59375"/><stop stop-opacity="1" stop-color="rgb(5.099487%, 65.499878%, 59.020996%)" offset="0.597656"/><stop stop-opacity="1" stop-color="rgb(5.099487%, 65.499878%, 58.796692%)" offset="0.601562"/><stop stop-opacity="1" stop-color="rgb(5.099487%, 65.499878%, 58.575439%)" offset="0.605469"/><stop stop-opacity="1" stop-color="rgb(5.099487%, 65.499878%, 58.384705%)" offset="0.609375"/><stop stop-opacity="1" stop-color="rgb(5.099487%, 65.499878%, 58.184814%)" offset="0.613281"/><stop stop-opacity="1" stop-color="rgb(5.099487%, 65.499878%, 57.99408%)" offset="0.617188"/><stop stop-opacity="1" stop-color="rgb(5.099487%, 65.499878%, 57.794189%)" offset="0.621094"/><stop stop-opacity="1" stop-color="rgb(5.099487%, 65.499878%, 57.452393%)" offset="0.625"/><stop stop-opacity="1" stop-color="rgb(5.099487%, 65.499878%, 57.116699%)" offset="0.628906"/><stop stop-opacity="1" stop-color="rgb(5.279541%, 65.499878%, 56.912231%)" offset="0.636719"/><stop stop-opacity="1" stop-color="rgb(5.479431%, 65.499878%, 56.721497%)" offset="0.640625"/><stop stop-opacity="1" stop-color="rgb(5.499268%, 65.499878%, 56.500244%)" offset="0.644531"/><stop stop-opacity="1" stop-color="rgb(5.499268%, 65.499878%, 56.260681%)" offset="0.648438"/><stop stop-opacity="1" stop-color="rgb(5.499268%, 65.490723%, 55.874634%)" offset="0.652344"/><stop stop-opacity="1" stop-color="rgb(5.499268%, 65.290833%, 55.488586%)" offset="0.660156"/><stop stop-opacity="1" stop-color="rgb(5.499268%, 65.098572%, 55.097961%)" offset="0.664062"/><stop stop-opacity="1" stop-color="rgb(5.499268%, 65.098572%, 54.711914%)" offset="0.667969"/><stop stop-opacity="1" stop-color="rgb(5.677795%, 65.098572%, 54.330444%)" offset="0.675781"/><stop stop-opacity="1" stop-color="rgb(5.877686%, 65.098572%, 54.118347%)" offset="0.683594"/><stop stop-opacity="1" stop-color="rgb(5.899048%, 65.098572%, 53.898621%)" offset="0.6875"/><stop stop-opacity="1" stop-color="rgb(5.899048%, 65.098572%, 53.683472%)" offset="0.691406"/><stop stop-opacity="1" stop-color="rgb(5.899048%, 65.098572%, 53.4729%)" offset="0.695312"/><stop stop-opacity="1" stop-color="rgb(5.899048%, 65.098572%, 53.086853%)" offset="0.699219"/><stop stop-opacity="1" stop-color="rgb(5.899048%, 65.098572%, 52.700806%)" offset="0.707031"/><stop stop-opacity="1" stop-color="rgb(6.086731%, 65.098572%, 52.362061%)" offset="0.710938"/><stop stop-opacity="1" stop-color="rgb(6.286621%, 65.098572%, 52.030945%)" offset="0.71875"/><stop stop-opacity="1" stop-color="rgb(6.298828%, 65.098572%, 51.620483%)" offset="0.726562"/><stop stop-opacity="1" stop-color="rgb(6.298828%, 65.098572%, 51.379395%)" offset="0.730469"/><stop stop-opacity="1" stop-color="rgb(6.298828%, 65.098572%, 51.170349%)" offset="0.734375"/><stop stop-opacity="1" stop-color="rgb(6.298828%, 65.098572%, 50.790405%)" offset="0.742188"/><stop stop-opacity="1" stop-color="rgb(6.298828%, 65.098572%, 50.404358%)" offset="0.75"/><stop stop-opacity="1" stop-color="rgb(6.298828%, 65.098572%, 50.204468%)" offset="0.753906"/><stop stop-opacity="1" stop-color="rgb(6.484985%, 65.098572%, 50.013733%)" offset="0.757812"/><stop stop-opacity="1" stop-color="rgb(6.684875%, 65.098572%, 49.632263%)" offset="0.761719"/><stop stop-opacity="1" stop-color="rgb(6.698608%, 65.098572%, 49.417114%)" offset="0.765625"/><stop stop-opacity="1" stop-color="rgb(6.698608%, 64.898682%, 49.176025%)" offset="0.769531"/><stop stop-opacity="1" stop-color="rgb(6.698608%, 64.698792%, 48.776245%)" offset="0.773438"/><stop stop-opacity="1" stop-color="rgb(6.698608%, 64.698792%, 48.587036%)" offset="0.777344"/><stop stop-opacity="1" stop-color="rgb(6.698608%, 64.698792%, 48.387146%)" offset="0.78125"/><stop stop-opacity="1" stop-color="rgb(6.698608%, 64.698792%, 48.196411%)" offset="0.785156"/><stop stop-opacity="1" stop-color="rgb(6.698608%, 64.698792%, 47.998047%)" offset="0.789062"/><stop stop-opacity="1" stop-color="rgb(6.698608%, 64.698792%, 47.654724%)" offset="0.792969"/><stop stop-opacity="1" stop-color="rgb(6.698608%, 64.698792%, 47.503662%)" offset="0.796875"/><stop stop-opacity="1" stop-color="rgb(6.88324%, 64.698792%, 47.314453%)" offset="0.800781"/><stop stop-opacity="1" stop-color="rgb(7.08313%, 64.698792%, 47.114563%)" offset="0.804688"/><stop stop-opacity="1" stop-color="rgb(7.099915%, 64.698792%, 46.923828%)" offset="0.808594"/><stop stop-opacity="1" stop-color="rgb(7.099915%, 64.698792%, 46.704102%)" offset="0.8125"/><stop stop-opacity="1" stop-color="rgb(7.099915%, 64.698792%, 46.463013%)" offset="0.816406"/><stop stop-opacity="1" stop-color="rgb(7.099915%, 64.698792%, 46.076965%)" offset="0.820312"/><stop stop-opacity="1" stop-color="rgb(7.099915%, 64.698792%, 45.692444%)" offset="0.828125"/><stop stop-opacity="1" stop-color="rgb(7.099915%, 64.698792%, 45.306396%)" offset="0.835938"/><stop stop-opacity="1" stop-color="rgb(7.099915%, 64.698792%, 44.923401%)" offset="0.839844"/><stop stop-opacity="1" stop-color="rgb(7.099915%, 64.698792%, 44.715881%)" offset="0.847656"/><stop stop-opacity="1" stop-color="rgb(7.099915%, 64.698792%, 44.474792%)" offset="0.851562"/><stop stop-opacity="1" stop-color="rgb(7.118225%, 64.698792%, 44.075012%)" offset="0.855469"/><stop stop-opacity="1" stop-color="rgb(7.318115%, 64.698792%, 43.884277%)" offset="0.859375"/><stop stop-opacity="1" stop-color="rgb(7.499695%, 64.698792%, 43.67981%)" offset="0.863281"/><stop stop-opacity="1" stop-color="rgb(7.499695%, 64.698792%, 43.295288%)" offset="0.871094"/><stop stop-opacity="1" stop-color="rgb(7.499695%, 64.508057%, 42.909241%)" offset="0.878906"/><stop stop-opacity="1" stop-color="rgb(7.499695%, 64.308167%, 42.56897%)" offset="0.882812"/><stop stop-opacity="1" stop-color="rgb(7.499695%, 64.299011%, 42.410278%)" offset="0.886719"/><stop stop-opacity="1" stop-color="rgb(7.499695%, 64.299011%, 42.222595%)" offset="0.890625"/><stop stop-opacity="1" stop-color="rgb(7.499695%, 64.299011%, 41.821289%)" offset="0.894531"/><stop stop-opacity="1" stop-color="rgb(7.499695%, 64.299011%, 41.581726%)" offset="0.898438"/><stop stop-opacity="1" stop-color="rgb(7.50885%, 64.299011%, 41.381836%)" offset="0.902344"/><stop stop-opacity="1" stop-color="rgb(7.658386%, 64.299011%, 41.191101%)" offset="0.90625"/><stop stop-opacity="1" stop-color="rgb(7.798767%, 64.299011%, 40.991211%)" offset="0.910156"/><stop stop-opacity="1" stop-color="rgb(7.798767%, 64.299011%, 40.605164%)" offset="0.917969"/><stop stop-opacity="1" stop-color="rgb(7.798767%, 64.299011%, 40.216064%)" offset="0.921875"/><stop stop-opacity="1" stop-color="rgb(7.798767%, 64.299011%, 39.830017%)" offset="0.925781"/><stop stop-opacity="1" stop-color="rgb(7.798767%, 64.299011%, 39.619446%)" offset="0.933594"/><stop stop-opacity="1" stop-color="rgb(7.798767%, 64.299011%, 39.399719%)" offset="0.9375"/><stop stop-opacity="1" stop-color="rgb(7.798767%, 64.299011%, 39.183044%)" offset="0.941406"/><stop stop-opacity="1" stop-color="rgb(7.798767%, 64.299011%, 38.983154%)" offset="0.945312"/><stop stop-opacity="1" stop-color="rgb(7.798767%, 64.299011%, 38.792419%)" offset="0.949219"/><stop stop-opacity="1" stop-color="rgb(7.798767%, 64.299011%, 38.591003%)" offset="0.953125"/><stop stop-opacity="1" stop-color="rgb(7.798767%, 64.299011%, 38.200378%)" offset="0.957031"/><stop stop-opacity="1" stop-color="rgb(7.98645%, 64.299011%, 37.814331%)" offset="0.960938"/><stop stop-opacity="1" stop-color="rgb(8.18634%, 64.120483%, 37.477112%)" offset="0.96875"/><stop stop-opacity="1" stop-color="rgb(8.221436%, 63.920593%, 37.29248%)" offset="0.976562"/><stop stop-opacity="1" stop-color="rgb(8.422852%, 63.899231%, 37.057495%)" offset="0.980469"/><stop stop-opacity="1" stop-color="rgb(8.599854%, 63.899231%, 36.671448%)" offset="0.984375"/><stop stop-opacity="1" stop-color="rgb(8.599854%, 63.899231%, 36.289978%)" offset="0.992188"/><stop stop-opacity="1" stop-color="rgb(8.599854%, 63.899231%, 36.099243%)" offset="1"/></radialGradient><clipPath id="ac15e76fd0"><path d="M 25.902344 27.238281 L 37.902344 27.238281 L 37.902344 39.238281 L 25.902344 39.238281 Z M 25.902344 27.238281 " clip-rule="nonzero"/></clipPath></defs><g clip-path="url(#96cb1d53cb)"><g clip-path="url(#7b500c9896)"><g clip-path="url(#1e3d5e3cf3)"><g clip-path="url(#fa4343ae2d)"><path fill="url(#0306bc69b3)" d="M 55.816406 28.390625 L 25.777344 10.542969 L 7.929688 40.582031 L 37.96875 58.429688 Z M 55.816406 28.390625 " fill-rule="nonzero"/></g></g></g></g><g clip-path="url(#ac15e76fd0)"><path fill="#ffffff" d="M 30.046875 38.9375 C 30.046875 38.9375 30.066406 38.9375 30.046875 38.9375 C 30.648438 39.125 31.265625 39.238281 31.902344 39.238281 C 35.183594 39.238281 37.867188 36.574219 37.902344 33.3125 L 37.902344 33.257812 C 37.902344 29.9375 35.203125 27.238281 31.902344 27.238281 C 28.601562 27.238281 25.902344 29.9375 25.902344 33.238281 C 25.902344 35.902344 27.648438 38.152344 30.046875 38.9375 Z M 27.308594 36.464844 L 27.382812 36.292969 L 29.222656 36.894531 L 30.253906 38.375 C 30.253906 38.375 30.234375 38.394531 30.234375 38.394531 L 30.085938 38.542969 C 28.960938 38.167969 27.984375 37.417969 27.308594 36.464844 Z M 26.296875 33.632812 L 26.390625 33.6875 L 27.066406 36.050781 L 27.046875 36.070312 C 26.632812 35.355469 26.351562 34.511719 26.296875 33.632812 Z M 27.382812 29.917969 L 27.589844 29.917969 L 27.589844 31.871094 L 26.503906 33.3125 L 26.277344 33.183594 C 26.296875 31.964844 26.710938 30.839844 27.382812 29.917969 Z M 29.859375 28.4375 L 31.714844 29.058594 L 31.714844 30.632812 L 29.597656 32.1875 L 27.964844 31.792969 L 27.964844 29.84375 Z M 33.796875 28.476562 L 35.859375 29.863281 L 35.859375 31.792969 L 34.210938 32.1875 L 32.089844 30.632812 L 32.089844 29.058594 Z M 37.527344 33.199219 L 37.320312 33.3125 L 36.214844 31.871094 L 36.214844 29.917969 L 36.421875 29.902344 C 37.117188 30.839844 37.507812 31.964844 37.527344 33.199219 Z M 36.683594 36.183594 L 36.628906 36.050781 L 37.414062 33.667969 L 37.507812 33.613281 C 37.433594 34.570312 37.152344 35.433594 36.683594 36.183594 Z M 33.046875 38.300781 L 30.648438 38.300781 L 29.578125 36.746094 L 30.570312 35.300781 L 33.253906 35.300781 L 34.152344 36.746094 Z M 27.421875 35.917969 L 26.765625 33.59375 L 27.851562 32.152344 L 29.445312 32.542969 L 30.253906 35.058594 L 29.277344 36.519531 Z M 31.867188 30.988281 L 31.941406 30.988281 L 33.984375 32.488281 L 33.179688 34.925781 L 30.628906 34.925781 L 29.839844 32.46875 Z M 34.433594 36.519531 L 33.535156 35.058594 L 34.339844 32.527344 L 35.953125 32.132812 L 37.039062 33.574219 L 36.273438 35.902344 Z M 30.496094 38.675781 L 33.195312 38.675781 L 33.214844 38.695312 C 32.804688 38.808594 32.351562 38.863281 31.902344 38.863281 C 31.414062 38.863281 30.945312 38.789062 30.496094 38.675781 Z M 33.648438 38.582031 L 33.441406 38.394531 L 34.472656 36.914062 L 36.308594 36.3125 L 36.421875 36.574219 C 35.726562 37.496094 34.773438 38.207031 33.648438 38.582031 Z M 36.140625 29.5625 L 36.085938 29.5625 L 34.003906 28.15625 L 33.964844 28.027344 C 34.808594 28.34375 35.558594 28.886719 36.140625 29.5625 Z M 33.570312 27.875 L 33.628906 28.136719 L 31.902344 28.71875 L 30.066406 28.101562 L 30.121094 27.914062 C 30.683594 27.726562 31.285156 27.613281 31.921875 27.613281 C 32.484375 27.613281 33.046875 27.707031 33.570312 27.875 Z M 29.671875 28.082031 L 29.671875 28.121094 L 27.722656 29.5625 L 27.664062 29.5625 C 28.210938 28.925781 28.902344 28.417969 29.671875 28.082031 Z M 29.671875 28.082031 " fill-opacity="1" fill-rule="nonzero"/></g><g fill="#ffffff" fill-opacity="1"><g transform="translate(19.053678, 23.466905)"><g><path d="M 1.21875 -0.507812 C 1.859375 -0.808594 2.09375 -1.289062 1.855469 -1.796875 C 1.652344 -2.21875 1.261719 -2.339844 0.570312 -2.183594 C 0.207031 -2.101562 0.046875 -2.125 -0.015625 -2.257812 C -0.0742188 -2.382812 0 -2.511719 0.171875 -2.59375 C 0.378906 -2.691406 0.542969 -2.640625 0.636719 -2.445312 L 1.335938 -2.773438 C 1.085938 -3.304688 0.519531 -3.453125 -0.113281 -3.15625 C -0.71875 -2.871094 -0.949219 -2.390625 -0.722656 -1.90625 C -0.515625 -1.476562 -0.109375 -1.339844 0.523438 -1.503906 C 0.867188 -1.589844 1.0625 -1.5625 1.128906 -1.417969 C 1.191406 -1.289062 1.117188 -1.164062 0.9375 -1.078125 C 0.722656 -0.976562 0.542969 -1.035156 0.449219 -1.230469 L -0.265625 -0.894531 C -0.00390625 -0.339844 0.550781 -0.191406 1.21875 -0.507812 Z M 1.21875 -0.507812 "/></g></g></g><g fill="#ffffff" fill-opacity="1"><g transform="translate(21.27757, 22.406249)"><g><path d="M 0.921875 -0.332031 L 1.6875 -0.609375 L 0.980469 -2.566406 L 1.792969 -2.859375 L 1.535156 -3.574219 L -0.855469 -2.710938 L -0.597656 -1.996094 L 0.214844 -2.289062 Z M 0.921875 -0.332031 "/></g></g></g><g fill="#ffffff" fill-opacity="1"><g transform="translate(23.75239, 21.502006)"><g><path d="M 0.292969 -0.0742188 L 1.085938 -0.273438 L 0.890625 -1.054688 L 1.1875 -1.132812 L 1.777344 -0.445312 L 2.679688 -0.671875 L 1.941406 -1.472656 C 2.191406 -1.707031 2.28125 -2.042969 2.1875 -2.425781 C 2.03125 -3.035156 1.523438 -3.3125 0.855469 -3.144531 L -0.398438 -2.828125 Z M 0.714844 -1.6875 L 0.542969 -2.375 L 0.914062 -2.46875 C 1.164062 -2.53125 1.332031 -2.441406 1.386719 -2.222656 C 1.445312 -2.003906 1.335938 -1.839844 1.085938 -1.777344 Z M 0.714844 -1.6875 "/></g></g></g><g fill="#ffffff" fill-opacity="1"><g transform="translate(26.46073, 20.827239)"><g><path d="M 0.296875 -0.046875 L 2.265625 -0.34375 L 2.167969 -1.007812 L 1 -0.828125 L 0.933594 -1.261719 L 1.949219 -1.417969 L 1.851562 -2.066406 L 0.835938 -1.914062 L 0.773438 -2.320312 L 1.894531 -2.492188 L 1.796875 -3.144531 L -0.128906 -2.855469 Z M 0.296875 -0.046875 "/></g></g></g><g fill="#ffffff" fill-opacity="1"><g transform="translate(28.788999, 20.468808)"><g><path d="M 0.300781 -0.0195312 L 2.289062 -0.144531 L 2.246094 -0.8125 L 1.066406 -0.738281 L 1.039062 -1.175781 L 2.066406 -1.242188 L 2.023438 -1.898438 L 1 -1.832031 L 0.972656 -2.246094 L 2.105469 -2.316406 L 2.066406 -2.976562 L 0.121094 -2.855469 Z M 0.300781 -0.0195312 "/></g></g></g><g fill="#ffffff" fill-opacity="1"><g transform="translate(31.132581, 20.307815)"><g><path d="M 0.976562 0.0273438 L 1.792969 0.0546875 L 1.855469 -2.027344 L 2.71875 -2.003906 L 2.742188 -2.761719 L 0.195312 -2.835938 L 0.175781 -2.078125 L 1.039062 -2.050781 Z M 0.976562 0.0273438 "/></g></g></g><g fill="#ffffff" fill-opacity="1"><g transform="translate(33.747885, 20.344095)"><g><path d="M 0.296875 0.0429688 L 1.101562 0.160156 L 1.308594 -1.261719 L 1.742188 -0.425781 L 2.265625 -0.347656 L 2.914062 -1.023438 L 2.707031 0.398438 L 3.507812 0.515625 L 3.921875 -2.292969 L 3.265625 -2.390625 L 2.121094 -1.191406 L 1.375 -2.667969 L 0.710938 -2.765625 Z M 0.296875 0.0429688 "/></g></g></g><g fill="#ffffff" fill-opacity="1"><g transform="translate(37.397554, 20.911623)"><g><path d="M 0.289062 0.078125 L 2.21875 0.585938 L 2.386719 -0.0625 L 1.246094 -0.363281 L 1.359375 -0.789062 L 2.351562 -0.527344 L 2.519531 -1.160156 L 1.523438 -1.421875 L 1.628906 -1.824219 L 2.730469 -1.535156 L 2.898438 -2.171875 L 1.015625 -2.671875 Z M 0.289062 0.078125 "/></g></g></g><g fill="#ffffff" fill-opacity="1"><g transform="translate(39.676757, 21.507058)"><g><path d="M 0.28125 0.101562 L 2.15625 0.777344 L 2.382812 0.144531 L 1.273438 -0.253906 L 1.421875 -0.667969 L 2.386719 -0.320312 L 2.609375 -0.9375 L 1.644531 -1.285156 L 1.785156 -1.675781 L 2.851562 -1.289062 L 3.078125 -1.914062 L 1.242188 -2.570312 Z M 0.28125 0.101562 "/></g></g></g><g fill="#ffffff" fill-opacity="1"><g transform="translate(41.891647, 22.289659)"><g><path d="M 0.886719 0.414062 L 1.625 0.761719 L 2.507812 -1.125 L 3.289062 -0.757812 L 3.613281 -1.445312 L 1.308594 -2.523438 L 0.984375 -1.835938 L 1.769531 -1.472656 Z M 0.886719 0.414062 "/></g></g></g></svg>